<svg width="18" height="14" viewBox="0 0 18 14" fill="none" xmlns="http://www.w3.org/2000/svg">
<path fill-rule="evenodd" clip-rule="evenodd" d="M17.2807 6.23871C17.4211 6.37933 17.5 6.56996 17.5 6.76871C17.5 6.96746 17.4211 7.15808 17.2807 7.29871L11.2807 13.2987C11.212 13.3724 11.1292 13.4315 11.0372 13.4725C10.9452 13.5135 10.8459 13.5355 10.7452 13.5373C10.6445 13.5391 10.5444 13.5206 10.4511 13.4828C10.3577 13.4451 10.2728 13.389 10.2016 13.3177C10.1304 13.2465 10.0743 13.1617 10.0365 13.0683C9.99882 12.9749 9.98029 12.8749 9.98207 12.7742C9.98384 12.6735 10.0059 12.5742 10.0469 12.4822C10.0879 12.3902 10.147 12.3074 10.2207 12.2387L14.9407 7.51871L0.75066 7.51871C0.551748 7.51871 0.360981 7.43969 0.220329 7.29904C0.0796773 7.15838 0.000659638 6.96762 0.000659647 6.76871C0.000659655 6.5698 0.0796773 6.37903 0.220329 6.23838C0.360981 6.09773 0.551748 6.01871 0.75066 6.01871L14.9407 6.01871L10.2207 1.29871C10.147 1.23005 10.0879 1.14725 10.0469 1.05525C10.0059 0.963247 9.98384 0.863933 9.98207 0.76323C9.98029 0.662527 9.99882 0.562498 10.0365 0.46911C10.0743 0.375722 10.1304 0.290888 10.2016 0.219669C10.2728 0.148451 10.3577 0.0923061 10.4511 0.054585C10.5445 0.016864 10.6445 -0.00166036 10.7452 0.000116427C10.8459 0.00189322 10.9452 0.0239347 11.0372 0.0649267C11.1292 0.105919 11.212 0.165021 11.2807 0.238708L17.2807 6.23871Z" fill="white"/>
</svg>
