<svg width="23" height="24" viewBox="0 0 23 24" fill="none" xmlns="http://www.w3.org/2000/svg">
<path d="M23 8.19187L22.9806 8.10187L22.9662 8.05462C22.9557 8.02862 22.9459 8.00262 22.9368 7.97662C22.9368 7.96087 22.9253 7.94587 22.9173 7.92937L22.8836 7.85962L22.8577 7.81237L22.8124 7.74937L22.7714 7.70662L22.7111 7.65937L22.6658 7.62862L22.6104 7.58587L22.5695 7.54687L22.5544 7.52812L12.0542 0.199124C11.8931 0.0846567 11.7028 0.0234375 11.5079 0.0234375C11.313 0.0234375 11.1227 0.0846567 10.9617 0.199124L0.378781 7.55887L0.322 7.60987L0.284625 7.64887L0.23575 7.70662L0.201969 7.74937L0.153094 7.81237C0.135125 7.82737 0.123625 7.83937 0.123625 7.85512L0.07475 7.91737L0.0567813 7.97662C0.037375 7.98787 0.037375 8.01562 0.025875 8.04637L0.0194063 8.09737C0 8.12812 0 8.15512 0 8.18737V15.6836C0 15.7309 0.00359375 15.7736 0.0115 15.8194L0.0194063 15.8666C0.023768 15.8957 0.029768 15.9245 0.037375 15.9529L0.0524687 16.0001C0.06325 16.0279 0.0668437 16.0549 0.0783437 16.0781L0.100625 16.1254C0.100625 16.1374 0.112125 16.1681 0.127219 16.1884L0.156687 16.2274C0.171781 16.2386 0.186156 16.2664 0.201969 16.2851L0.227844 16.3279L0.265219 16.3669C0.276719 16.3789 0.276719 16.3991 0.296125 16.3991L0.351469 16.4381L0.392438 16.4689L0.400344 16.4846L10.9164 23.8129C11.0738 23.9336 11.2757 23.9771 11.4626 23.9771C11.6459 23.9771 11.8335 23.9141 12.0053 23.7971L22.701 16.3909L22.7492 16.3316L22.7829 16.2844L22.8203 16.2266L22.8512 16.1756L22.8771 16.1059L22.8922 16.0549L22.9217 15.9769L22.9368 15.9341L22.9662 15.8524V8.35237C22.9662 8.30512 22.9662 8.25862 22.9468 8.21137L22.936 8.16862L22.977 8.17237L23 8.19187ZM11.5115 14.4686L8.01047 12.0304L11.5115 9.58537L15.0075 12.0274L11.5115 14.4686ZM10.5196 7.79662L6.233 10.7846L2.77078 8.37037L10.5196 2.98012V7.79662ZM4.45122 12.0281L1.97584 13.7584V10.3091L4.45122 12.0349V12.0281ZM6.233 13.2776L10.5196 16.2694V21.0896L2.77078 15.6986L6.23731 13.2776H6.233ZM12.4955 16.2701L16.7857 13.2889L20.2479 15.7069L12.4948 21.0979L12.4955 16.2701ZM18.5639 12.0386L21.0385 10.3196V13.7734L18.5639 12.0424V12.0386ZM16.7864 10.7966L12.4998 7.80862V2.97637L20.2486 8.36662L16.7864 10.7809V10.7966Z" fill="white"/>
</svg>
