<svg width="23" height="23" viewBox="0 0 23 23" fill="none" xmlns="http://www.w3.org/2000/svg">
<path d="M22.4495 0.553988C22.2012 0.306855 21.8898 0.133121 21.5494 0.0518799C21.2091 -0.0293608 20.8529 -0.0149634 20.5202 0.0934898L1.31905 6.51415C0.962942 6.62727 0.648262 6.84365 0.414753 7.13595C0.181244 7.42825 0.03938 7.78337 0.0070796 8.15645C-0.0252208 8.52953 0.0534907 8.90384 0.233273 9.2321C0.413055 9.56036 0.685844 9.82785 1.01718 10.0008L8.98377 13.9479L12.9211 21.9606C13.0794 22.2742 13.3215 22.5375 13.6205 22.7211C13.9195 22.9047 14.2636 23.0012 14.6142 23H14.7454C15.1209 22.9723 15.4794 22.832 15.7743 22.5973C16.0692 22.3627 16.2869 22.0446 16.3991 21.6843L22.8958 2.48808C23.0118 2.15643 23.0314 1.79857 22.9524 1.45617C22.8734 1.11376 22.699 0.800891 22.4495 0.553988ZM2.13277 8.32983L18.8928 2.72491L9.58749 12.0533L2.13277 8.32983ZM14.7061 20.9212L10.9787 13.4479L20.284 4.11956L14.7061 20.9212Z" fill="white"/>
</svg>
