<svg width="23" height="24" viewBox="0 0 23 24" fill="none" xmlns="http://www.w3.org/2000/svg">
<path d="M11.5 0C9.9898 0 8.49438 0.318095 7.09914 0.936124C5.7039 1.55415 4.43615 2.46001 3.36827 3.60198C1.2116 5.90829 0 9.03631 0 12.2979C0 17.7336 3.3005 22.3453 7.866 23.981C8.441 24.0793 8.625 23.6981 8.625 23.3661V21.2877C5.4395 22.0256 4.761 19.6398 4.761 19.6398C4.232 18.2132 3.4845 17.832 3.4845 17.832C2.438 17.0695 3.565 17.0941 3.565 17.0941C4.715 17.1802 5.3245 18.3608 5.3245 18.3608C6.325 20.2301 8.0155 19.6767 8.671 19.3815C8.7745 18.5822 9.0735 18.0411 9.3955 17.7336C6.8425 17.4262 4.163 16.3685 4.163 11.683C4.163 10.318 4.6 9.22344 5.3475 8.35029C5.2325 8.04284 4.83 6.76386 5.4625 5.10364C5.4625 5.10364 6.4285 4.77159 8.625 6.35803C9.5335 6.08747 10.5225 5.9522 11.5 5.9522C12.4775 5.9522 13.4665 6.08747 14.375 6.35803C16.5715 4.77159 17.5375 5.10364 17.5375 5.10364C18.17 6.76386 17.7675 8.04284 17.6525 8.35029C18.4 9.22344 18.837 10.318 18.837 11.683C18.837 16.3808 16.146 17.4139 13.5815 17.7213C13.9955 18.1025 14.375 18.8527 14.375 19.9964V23.3661C14.375 23.6981 14.559 24.0916 15.1455 23.981C19.711 22.333 23 17.7336 23 12.2979C23 10.6829 22.7025 9.08376 22.1246 7.59171C21.5467 6.09966 20.6996 4.74395 19.6317 3.60198C18.5639 2.46001 17.2961 1.55415 15.9009 0.936124C14.5056 0.318095 13.0102 0 11.5 0Z" fill="white"/>
</svg>
