<svg width="22" height="24" viewBox="0 0 22 24" fill="none" xmlns="http://www.w3.org/2000/svg">
<path d="M2.49333 0C1.83206 0 1.19787 0.279127 0.73028 0.775977C0.26269 1.27283 0 1.9467 0 2.64935C0 3.352 0.26269 4.02587 0.73028 4.52272C1.19787 5.01957 1.83206 5.2987 2.49333 5.2987C3.15461 5.2987 3.7888 5.01957 4.25639 4.52272C4.72398 4.02587 4.98667 3.352 4.98667 2.64935C4.98667 1.9467 4.72398 1.27283 4.25639 0.775977C3.7888 0.279127 3.15461 0 2.49333 0ZM0.146667 7.48052C0.107768 7.48052 0.0704629 7.49694 0.0429576 7.52616C0.0154522 7.55539 0 7.59503 0 7.63636V23.8442C0 23.9302 0.0657067 24 0.146667 24H4.84C4.8789 24 4.9162 23.9836 4.94371 23.9544C4.97121 23.9251 4.98667 23.8855 4.98667 23.8442V7.63636C4.98667 7.59503 4.97121 7.55539 4.94371 7.52616C4.9162 7.49694 4.8789 7.48052 4.84 7.48052H0.146667ZM7.77333 7.48052C7.73443 7.48052 7.69713 7.49694 7.66962 7.52616C7.64212 7.55539 7.62667 7.59503 7.62667 7.63636V23.8442C7.62667 23.9302 7.69237 24 7.77333 24H12.4667C12.5056 24 12.5429 23.9836 12.5704 23.9544C12.5979 23.9251 12.6133 23.8855 12.6133 23.8442V15.1169C12.6133 14.4969 12.8451 13.9023 13.2577 13.4639C13.6703 13.0255 14.2299 12.7792 14.8133 12.7792C15.3968 12.7792 15.9564 13.0255 16.369 13.4639C16.7815 13.9023 17.0133 14.4969 17.0133 15.1169V23.8442C17.0133 23.9302 17.079 24 17.16 24H21.8533C21.8922 24 21.9295 23.9836 21.957 23.9544C21.9845 23.9251 22 23.8855 22 23.8442V13.0971C22 10.0713 19.5243 7.70494 16.6907 7.97797C15.814 8.06343 14.9553 8.29395 14.1457 8.66119L12.6133 9.35938V7.63636C12.6133 7.59503 12.5979 7.55539 12.5704 7.52616C12.5429 7.49694 12.5056 7.48052 12.4667 7.48052H7.77333Z" fill="white"/>
</svg>
